<svg xmlns="http://www.w3.org/2000/svg" width="165" height="56" viewBox="0 0 165 56" fill="none"><path d="M163.301 21.2145C163.301 20.5838 162.857 20.1634 162.126 20.1634L160.688 20.1897L160.715 23.3955H161.498V22.2919H161.969L162.648 23.3955H163.563L162.753 22.1605C162.92 22.067 163.06 21.9297 163.156 21.7633C163.253 21.5968 163.303 21.4072 163.301 21.2145ZM161.969 21.6349H161.472V20.8203H162.047C162.151 20.8089 162.255 20.8381 162.337 20.9017C162.42 20.9653 162.475 21.0585 162.491 21.162V21.1882C162.489 21.2532 162.474 21.317 162.446 21.3755C162.418 21.4341 162.378 21.4861 162.329 21.5282C162.279 21.5703 162.222 21.6015 162.16 21.6199C162.098 21.6383 162.033 21.6434 161.969 21.6349ZM46.064 36.0349C44.7315 36.0349 43.817 34.9838 43.817 33.4335V26.3649H49.3039V21.3722H43.8301L43.7778 15.6437H37.7161L37.7683 34.7211C37.7683 38.5838 40.3289 41.2116 44.0913 41.2116C46.0771 41.2116 47.9583 40.9225 49.4476 40.2393V35.378C48.39 35.8716 47.2283 36.0971 46.064 36.0349ZM60.539 21.0568C54.8954 21.0568 50.5581 25.4714 50.5581 31.3313C50.5581 37.1386 54.8954 41.1853 60.8787 41.1853C64.2493 41.1853 67.4108 39.9765 69.3442 37.4802L64.6934 35.3517C63.7528 36.2189 62.3158 36.5605 61.0355 36.5605C58.9452 36.5605 56.855 35.4831 56.5676 33.2758H70.4416C70.6501 32.4871 70.7555 31.6744 70.7552 30.8583C70.7552 24.8408 66.3918 21.0568 60.5521 21.0568H60.539ZM56.5676 29.413C56.7505 26.7853 58.6317 25.5765 60.6958 25.5765C63.0212 25.5765 64.7718 26.8904 64.7718 29.1503V29.413H56.5676ZM31.9548 36.0349C30.6223 36.0349 29.7078 34.9838 29.7078 33.4335V26.3649H35.1947V21.3722H29.7208L29.6686 15.6437H23.6068L23.6591 34.7211C23.6591 38.5838 26.2197 41.2116 29.9821 41.2116C31.9679 41.2116 33.8491 40.9225 35.3384 40.2393V35.378C34.2816 35.874 33.1193 36.0996 31.9548 36.0349ZM10.6603 21.0568C5.4608 21.0568 0 24.4992 0 31.4364C0 37.2174 3.86697 41.2641 8.75295 41.2641C11.5487 41.2641 13.6651 40.1342 15.0498 38.1371L15.2327 40.9225H21.0985V31.6729C21.0985 24.6306 15.9382 21.0568 10.6603 21.0568ZM10.6603 35.9298C8.02136 35.9298 6.114 33.959 6.114 31.1736C6.114 28.3882 7.99523 26.4174 10.6603 26.4174C13.1164 26.4174 15.1544 28.5722 15.1544 31.1736C15.1544 33.7751 13.1164 35.9298 10.6603 35.9298ZM161.838 18.7182C159.931 18.7444 158.703 19.9795 158.729 21.8189C158.755 23.6583 160.009 24.8671 161.916 24.8408C163.772 24.8145 165.026 23.5795 165 21.7138C164.973 19.8481 163.719 18.6919 161.838 18.7182ZM161.916 24.3152C160.427 24.3415 159.408 23.343 159.408 21.8189C159.408 20.2948 160.375 19.27 161.864 19.2437C163.354 19.2174 164.346 20.216 164.373 21.7663C164.373 23.2641 163.38 24.289 161.93 24.3152H161.916ZM132.209 21.3984L127.976 33.7488L123.691 21.3984H117.107L124.997 40.8962H130.902L138.793 21.3984H132.209ZM147.912 21.0568C142.268 21.0568 137.931 25.4714 137.931 31.3313C137.931 37.1386 142.268 41.1853 148.251 41.1853C151.622 41.1853 154.783 39.9765 156.717 37.4802L152.066 35.3517C151.126 36.2189 149.688 36.5605 148.408 36.5605C146.318 36.5605 144.228 35.4831 143.94 33.2758H157.814C158.023 32.4871 158.128 31.6744 158.128 30.8583C158.128 24.8408 153.764 21.0568 147.912 21.0568ZM152.145 29.413H143.94C144.123 26.7853 146.004 25.5765 148.069 25.5765C150.394 25.5765 152.145 26.8904 152.145 29.1503V29.413ZM112.43 12.832C110.287 12.832 108.667 14.2773 108.667 16.3006C108.667 18.324 110.287 19.8218 112.43 19.8218C114.572 19.8218 116.192 18.3503 116.192 16.3006C116.192 14.251 114.598 12.832 112.43 12.832ZM84.9167 21.0306C83.6916 21.0107 82.4823 21.31 81.4063 21.8994C80.3303 22.4888 79.4244 23.3482 78.7765 24.3941L78.5675 21.3984H72.7148V40.8962H78.7765V30.6743C78.9072 28.2305 80.8668 26.3649 83.0093 26.3649C85.4131 26.3649 86.5105 28.178 86.5105 30.4641V40.87H92.5461V29.5181C92.5461 24.578 89.5544 21.0306 84.9167 21.0306ZM103.415 36.0349C102.083 36.0349 101.168 34.9838 101.168 33.4335V26.3649H106.655V21.3722H101.168L101.116 15.6437H95.0544L95.1067 34.7211C95.1067 38.5838 97.6672 41.2116 101.43 41.2116C103.415 41.2116 105.297 40.9225 106.786 40.2393V35.378C105.733 35.8718 104.576 36.0975 103.415 36.0349ZM109.373 21.3984V40.8962H115.487V21.3984C114.58 22.0025 113.517 22.3247 112.43 22.3247C111.342 22.3247 110.279 22.0025 109.373 21.3984Z" fill="white" fill-opacity="0.6"></path></svg>