<svg xmlns="http://www.w3.org/2000/svg" width="121" height="56" viewBox="0 0 121 56" fill="none"><path d="M8.25394 36.0262H0.0711449V40.129H8.25394V36.0262Z" fill="white" fill-opacity="0.6"></path><path d="M20.5244 36.0262H12.3468V40.129H20.5244V36.0262Z" fill="white" fill-opacity="0.6"></path><path d="M20.5266 27.821H0.0664062V31.9238H20.5266V27.821Z" fill="white" fill-opacity="0.6"></path><path d="M12.3465 19.6163H0.0711496V23.7189H12.3465V19.6163Z" fill="white" fill-opacity="0.6"></path><path d="M20.5287 19.6163H16.4374V23.7189H20.5287V19.6163Z" fill="white" fill-opacity="0.6"></path><path d="M79.9245 19.5929C73.3536 19.5929 69.96 24.2524 69.96 30.0003C69.96 35.7484 73.2699 40.4084 79.9245 40.4084C86.579 40.4084 89.889 35.7484 89.889 30.0003C89.8893 24.2524 86.4951 19.5929 79.9245 19.5929ZM84.8956 30.0189C84.891 33.7151 83.649 36.7089 79.9245 36.7089C76.2 36.7089 74.9577 33.7154 74.9538 30.0189V30.0005C74.9577 26.3046 76.2002 23.3111 79.9247 23.3111C83.649 23.3111 84.891 26.3046 84.8956 30.0005V30.0099C84.8956 30.013 84.8956 30.0158 84.8956 30.0189Z" fill="white" fill-opacity="0.6"></path><path d="M50.5029 40.1286V11.3537C50.5029 11.3537 54.2878 10.8145 54.5813 10.7749C54.9137 10.7299 55.3551 10.9672 55.3551 11.4365V22.1034C56.1405 21.3547 57.0054 20.7511 57.9481 20.2912C58.8914 19.8318 59.9977 19.6017 61.2686 19.6017C62.3689 19.6017 63.3438 19.7888 64.195 20.1633C65.0468 20.5371 65.7574 21.063 66.327 21.7388C66.8966 22.4156 67.329 23.2231 67.6237 24.1621C67.9182 25.1011 68.0656 26.1353 68.0656 27.2648V40.1284H63.2132V27.2648C63.2132 26.0305 62.9282 25.0749 62.3586 24.3981C61.7887 23.7221 60.9341 23.3838 59.7943 23.3838C58.9562 23.3838 58.1708 23.5743 57.4378 23.9556C56.704 24.3365 56.0099 24.8547 55.3551 25.5118V40.1286H50.5029Z" fill="white" fill-opacity="0.6"></path><path d="M115.283 40.4057C111.944 40.4057 109.851 38.4571 109.851 34.8217V24.0476H106.088C106.088 24.0476 106.888 21.2736 106.951 21.0552C107.015 20.837 107.18 20.6025 107.512 20.5561C107.844 20.5098 109.847 20.2298 109.847 20.2298L110.771 14.3303C110.771 14.3303 113.489 13.9462 113.919 13.8817C114.326 13.8206 114.695 14.1144 114.695 14.5588V20.2298H119.454V24.0476H114.695V34.6765C114.695 36.1277 115.576 36.6824 116.421 36.6824C116.937 36.6824 117.644 36.4075 118.171 36.1621C118.497 36.011 119.002 36.1231 119.133 36.5794C119.248 36.9836 119.862 39.1295 119.862 39.1295C119.333 39.4722 117.659 40.4057 115.283 40.4057Z" fill="white" fill-opacity="0.6"></path><path d="M103.423 24.1119C102.477 23.8039 100.699 23.3109 99.0085 23.3109C97.2857 23.3109 95.9301 23.9077 95.9301 25.3442C95.9301 27.1383 98.8516 27.6606 100.851 28.392C102.188 28.8809 105.774 29.8342 105.774 33.7009C105.774 38.398 101.884 40.4061 97.7343 40.4061C93.5842 40.4061 91.1324 38.8584 91.1324 38.8584C91.1324 38.8584 91.7761 36.5782 91.9064 36.1281C92.0244 35.7231 92.4939 35.581 92.793 35.6962C93.8611 36.109 95.7897 36.6828 97.9697 36.6828C100.177 36.6828 101.245 36.007 101.245 34.5664C101.245 32.6491 98.2642 32.0631 96.293 31.4396C94.9351 31.0105 91.3409 30.0096 91.3409 25.757C91.3409 21.5678 95.0094 19.6023 98.9301 19.6023C102.249 19.6023 103.877 20.2982 105.093 20.9194C105.093 20.9194 104.415 23.2873 104.314 23.6401C104.196 24.0594 103.853 24.2517 103.423 24.1119Z" fill="white" fill-opacity="0.6"></path><path d="M48.6096 20.2958C48.6096 19.8426 48.2234 19.5833 47.8551 19.6255C46.2267 19.8126 45.065 20.581 44.3133 21.2964C42.8375 20.1369 40.7889 19.5833 38.4897 19.5833C33.8799 19.5833 30.2782 21.8143 30.2782 26.6791C30.2782 29.4717 31.4637 31.396 33.3463 32.5289C31.9482 33.1925 31.0169 34.6007 31.0169 35.9851C31.0169 38.3011 32.8415 39.0263 32.8415 39.0263C32.8415 39.0263 29.6513 40.5789 29.6513 43.6853C29.6513 47.6618 33.3007 49.2695 37.76 49.2695C44.1879 49.2695 48.6103 46.6073 48.6103 41.719C48.6103 38.7105 46.3145 37.0497 41.3113 36.8522C38.3423 36.7347 36.4191 36.6275 35.9426 36.4694C35.3131 36.2597 35.0037 35.7543 35.0037 35.1963C35.0037 34.5803 35.5083 33.9938 36.3037 33.5911C36.9975 33.7143 37.7298 33.7751 38.4902 33.7751C43.1038 33.7751 46.7019 31.5505 46.7019 26.6793C46.7019 25.4981 46.4892 24.4726 46.1025 23.5965C46.7803 23.2339 47.6143 22.9787 48.6101 22.9787C48.6101 22.9787 48.6096 20.7091 48.6096 20.2958ZM35.9057 40.1542C35.9057 40.1542 38.3265 40.2461 40.7455 40.3584C43.4631 40.4844 44.31 41.0717 44.31 42.4828C44.31 44.2068 41.9483 45.8837 38.6479 45.8837C35.515 45.8837 33.9501 44.7907 33.9501 42.9709C33.9501 41.9268 34.4998 40.7588 35.9057 40.1542ZM38.4984 30.3794C36.3146 30.3794 34.6108 29.2163 34.6108 26.6791C34.6108 24.1416 36.3161 22.9785 38.4984 22.9785C40.681 22.9785 42.3861 24.1385 42.3861 26.6791C42.3861 29.2196 40.6831 30.3794 38.4984 30.3794Z" fill="white" fill-opacity="0.6"></path></svg>