<svg xmlns="http://www.w3.org/2000/svg" width="140" height="56" viewBox="0 0 140 56" fill="none"><path d="M44.9526 24.9768C44.9526 22.5716 42.4645 20.006 38.3175 20.006C33.673 20.006 28.3649 23.3733 27.5355 30.1079C26.7062 36.8425 31.019 39.8891 35.4976 39.8891C39.9763 39.8891 42.1327 38.2857 44.455 36.0408C42.4645 33.6356 39.8104 34.758 39.3128 34.9184C38.8152 35.2391 37.9858 35.5598 36.6588 35.5598C35 35.5598 33.1754 34.758 33.1754 31.7114C44.1232 30.589 44.9526 27.382 44.9526 24.9768ZM39.6446 25.2975C39.6446 26.0992 39.3128 27.382 33.8389 28.0234C35 24.0147 37.1564 23.694 38.1517 23.694C39.1469 23.8544 39.6446 24.4958 39.6446 25.2975ZM21.2322 25.9389C21.2322 25.9389 18.91 32.9942 18.7441 33.6356C18.7441 32.9942 16.9194 20.3267 16.9194 20.3267C12.9384 20.3267 10.782 23.0526 9.78673 25.9389C9.78673 25.9389 6.96682 32.9942 6.80095 33.6356C6.63507 33.1545 6.30332 26.0992 6.30332 26.0992C5.97156 22.5716 2.65403 20.3267 0 20.3267L3.31754 39.5684C7.46445 39.5684 9.78673 36.8425 10.9479 33.9563C10.9479 33.9563 13.436 27.7027 13.6019 27.382C13.6019 27.7027 15.4265 39.5684 15.4265 39.5684C19.5735 39.5684 21.8957 37.0029 23.0569 34.277L28.8626 20.3267C24.5498 20.3267 22.3934 23.0526 21.2322 25.9389ZM60.3791 19.8457C57.891 19.8457 55.9005 21.1285 54.2417 23.213L55.5687 11.668C52.0853 11.668 49.4313 14.5542 48.7678 18.7233L46.1137 39.4081C48.1043 39.4081 50.0948 38.9271 51.2559 37.4839C52.2512 38.7667 53.7441 39.7288 55.9005 39.7288C61.7062 39.7288 65.6872 33.3149 65.6872 27.2217C65.8531 21.6095 63.0332 19.8457 60.3791 19.8457ZM59.7156 29.7872C59.0521 33.1545 57.2275 35.3994 55.237 35.3994C53.4123 35.3994 52.5829 34.5977 52.5829 34.5977C52.9147 31.7114 53.2464 29.7872 53.91 28.1838C54.5735 26.5803 56.2322 24.1751 57.891 24.1751C59.5498 24.3354 60.3791 26.4199 59.7156 29.7872ZM80.2844 20.3267H76.3033V20.1664C76.6351 17.6008 77.1327 16.318 79.2891 16.1577C80.6161 15.9974 81.2796 15.356 81.4455 14.5542C81.6114 13.9128 81.9431 11.8283 81.9431 11.8283C73.8152 11.8283 71.327 15.1956 70.6635 20.3267V20.4871H70.4976C69.1706 20.4871 67.6777 21.9302 67.5118 23.694L67.346 24.3354H70L67.6777 42.2944L67.0142 45.5013C67.1801 45.5013 67.1801 45.5013 67.346 45.5013C71.1611 45.341 73.4834 42.4547 74.1469 38.2857L75.9716 24.1751H77.2986C78.4597 24.1751 79.9526 23.0526 80.2844 20.9681V20.3267ZM101.185 20.006C96.5403 20.006 92.2275 23.3733 90.9005 28.5045C89.5735 33.6356 91.564 39.8891 98.3649 39.8891C105.166 39.8891 109.147 33.4752 109.147 28.1838C108.981 22.8923 105.332 20.006 101.185 20.006ZM103.009 29.6269C102.844 32.0321 101.682 35.5598 98.6967 35.5598C95.7109 35.5598 96.2085 31.3907 96.3744 29.4665C96.7062 27.382 97.8673 24.3354 100.521 24.3354C103.009 24.3354 103.341 27.0613 103.009 29.6269ZM132.038 25.9389C132.038 25.9389 129.716 32.9942 129.55 33.6356C129.55 32.9942 127.725 20.3267 127.725 20.3267C123.744 20.3267 121.588 23.0526 120.592 25.9389C120.592 25.9389 117.773 32.9942 117.607 33.6356C117.607 33.1545 117.109 26.0992 117.109 26.0992C116.943 22.5716 113.46 20.4871 110.806 20.4871L114.123 39.7288C118.27 39.7288 120.592 37.0029 121.754 34.1166C121.754 34.1166 124.242 27.8631 124.408 27.5424C124.408 27.8631 126.232 39.7288 126.232 39.7288C130.379 39.7288 132.701 37.1632 133.863 34.4373L139.336 20.3267C135.19 20.3267 133.033 23.0526 132.038 25.9389ZM84.0995 11.8283L80.782 38.1253L80.1185 41.3323C80.2844 41.3323 80.2844 41.3323 80.4502 41.3323C84.0995 41.3323 86.7535 38.1253 87.0853 34.277L89.0758 19.2043C89.5735 14.7146 86.5877 11.8283 84.0995 11.8283Z" fill="white" fill-opacity="0.6"></path></svg>