<svg xmlns="http://www.w3.org/2000/svg" width="110" height="30" viewBox="0 0 110 30" fill="none"><path d="M45.5143 6.98464C43.253 6.98464 41.0425 7.65519 39.1623 8.91148C37.2822 10.1678 35.8167 11.9534 34.9514 14.0425C34.086 16.1317 33.8596 18.4305 34.3008 20.6483C34.7419 22.8661 35.8308 24.9033 37.4298 26.5023C39.0288 28.1012 41.0659 29.1901 43.2838 29.6313C45.5016 30.0725 47.8004 29.846 49.8895 28.9807C51.9787 28.1153 53.7643 26.6499 55.0206 24.7697C56.2769 22.8896 56.9474 20.6791 56.9474 18.4178C56.9474 15.3855 55.7429 12.4775 53.5987 10.3333C51.4546 8.1892 48.5465 6.98464 45.5143 6.98464ZM45.5143 25.4047C44.1324 25.4047 42.7815 24.995 41.6325 24.2272C40.4835 23.4595 39.588 22.3683 39.0592 21.0916C38.5304 19.8149 38.392 18.4101 38.6616 17.0547C38.9312 15.6994 39.5966 14.4544 40.5738 13.4773C41.5509 12.5002 42.7958 11.8347 44.1512 11.5651C45.5065 11.2955 46.9114 11.4339 48.188 11.9627C49.4647 12.4915 50.556 13.3871 51.3237 14.5361C52.0914 15.6851 52.5012 17.0359 52.5012 18.4178C52.4962 20.2711 51.7591 22.0473 50.4504 23.3596C49.1417 24.6718 47.3675 25.4138 45.5143 25.4238V25.4047Z" fill="#555555"></path><path d="M21.7523 11.3674C22.3203 11.3648 22.8832 11.4745 23.4086 11.6902C23.9341 11.9058 24.4118 12.2231 24.8143 12.6238C25.2168 13.0245 25.5362 13.5008 25.7541 14.0253C25.972 14.5498 26.0842 15.1122 26.0842 15.6802V29.4699H30.4606V15.6675C30.4669 13.9041 29.9369 12.1804 28.941 10.7252C27.945 9.26998 26.5302 8.15194 24.8841 7.51942C23.238 6.8869 21.4386 6.76979 19.7244 7.18363C18.0102 7.59748 16.4624 8.52271 15.2862 9.83658L15.2545 9.87469L15.2037 9.83658C14.0265 8.5274 12.4797 7.60638 10.7678 7.19532C9.05587 6.78426 7.2595 6.90253 5.61626 7.5345C3.97301 8.16646 2.56031 9.28234 1.56498 10.7346C0.569645 12.1868 0.0385769 13.9069 0.0420087 15.6675V29.4699H4.43743V15.6802C4.41518 15.1012 4.51001 14.5236 4.71625 13.9821C4.92249 13.4406 5.23589 12.9463 5.63768 12.5287C6.03948 12.1112 6.5214 11.779 7.05459 11.5522C7.58779 11.3253 8.16129 11.2083 8.74074 11.2083C9.3202 11.2083 9.8937 11.3253 10.4269 11.5522C10.9601 11.779 11.442 12.1112 11.8438 12.5287C12.2456 12.9463 12.559 13.4406 12.7652 13.9821C12.9715 14.5236 13.0663 15.1012 13.0441 15.6802V29.4699H17.4331V15.6802C17.4348 14.5358 17.8906 13.4388 18.7004 12.6302C19.5103 11.8215 20.6079 11.3674 21.7523 11.3674Z" fill="#555555"></path><path d="M83.1167 2.3415C83.1167 1.76032 82.8858 1.20294 82.4749 0.79198C82.0639 0.381021 81.5065 0.150146 80.9253 0.150146C80.3441 0.150146 79.7868 0.381021 79.3758 0.79198C78.9649 1.20294 78.734 1.76032 78.734 2.3415V9.42372L78.6578 9.3602C76.66 7.80916 74.1999 6.97273 71.6708 6.98464C69.4095 6.98464 67.1991 7.65519 65.3189 8.91148C63.4387 10.1678 61.9733 11.9534 61.1079 14.0425C60.2426 16.1317 60.0162 18.4305 60.4573 20.6483C60.8985 22.8661 61.9874 24.9033 63.5863 26.5023C65.1853 28.1012 67.2225 29.1901 69.4403 29.6313C71.6581 30.0724 73.957 29.846 76.0461 28.9807C78.1352 28.1153 79.9209 26.6499 81.1771 24.7697C82.4334 22.8896 83.104 20.6791 83.104 18.4178L83.1167 2.3415ZM71.6835 25.4238C70.303 25.4175 68.9553 25.0024 67.8105 24.2309C66.6657 23.4593 65.7751 22.366 65.2511 21.0887C64.7272 19.8115 64.5933 18.4077 64.8665 17.0544C65.1397 15.7012 65.8076 14.4592 66.786 13.4852C67.7644 12.5113 69.0094 11.849 70.3638 11.582C71.7183 11.3149 73.1215 11.4551 74.3963 11.9849C75.6712 12.5146 76.7605 13.4102 77.5269 14.5585C78.2932 15.7068 78.7022 17.0563 78.7022 18.4369C78.6922 20.289 77.9511 22.0623 76.6402 23.3708C75.3293 24.6793 73.5547 25.4171 71.7026 25.4238H71.6835Z" fill="#555555"></path><path d="M97.8591 29.8319C100.389 29.8498 102.851 29.0127 104.846 27.4564L104.922 27.3992V29.4699H109.292V18.4115C109.292 16.1502 108.622 13.9397 107.365 12.0595C106.109 10.1794 104.324 8.71394 102.234 7.84859C100.145 6.98324 97.8464 6.75682 95.6286 7.19798C93.4108 7.63913 91.3736 8.72803 89.7747 10.327C88.1757 11.9259 87.0868 13.9631 86.6456 16.181C86.2045 18.3988 86.4309 20.6976 87.2962 22.7867C88.1616 24.8759 89.627 26.6615 91.5072 27.9178C93.3874 29.1741 95.5979 29.8446 97.8591 29.8446V29.8319ZM97.8591 11.4118C99.241 11.4118 100.592 11.8216 101.741 12.5893C102.89 13.3571 103.785 14.4483 104.314 15.725C104.843 17.0017 104.981 18.4065 104.712 19.7618C104.442 21.1172 103.777 22.3621 102.8 23.3393C101.822 24.3164 100.578 24.9818 99.2222 25.2514C97.8669 25.521 96.462 25.3827 95.1853 24.8538C93.9086 24.325 92.8174 23.4295 92.0497 22.2805C91.282 21.1315 90.8722 19.7806 90.8722 18.3988C90.8772 16.5455 91.6143 14.7693 92.923 13.457C94.2317 12.1448 96.0059 11.4028 97.8591 11.3928V11.4118Z" fill="#555555"></path></svg>